<?xml version="1.0" standalone="no"?><!DOCTYPE svg PUBLIC "-//W3C//DTD SVG 1.1//EN" "http://www.w3.org/Graphics/SVG/1.1/DTD/svg11.dtd"><svg t="1642060046128" class="icon" viewBox="0 0 1024 1024" version="1.1" xmlns="http://www.w3.org/2000/svg" p-id="3185" xmlns:xlink="http://www.w3.org/1999/xlink" width="200" height="200"><defs><style type="text/css"></style></defs><path d="M944.685 813.76h-860.014c-23.302 0-42.512-8.031-42.512-17.791v0c0-9.762 19.052-17.791 42.512-17.791h854.662c23.302 0 42.512 8.031 42.512 17.791v2.205c0 8.502-16.691 15.587-37.159 15.587v0z" p-id="3186"></path><path d="M642.215 121.908v655.796c0 15.904-7.085 28.814-15.746 28.814h-4.409c-8.66 0-15.746-12.912-15.746-28.814v-655.796c0-15.904 7.085-28.814 15.746-28.814h4.409c8.66 0 15.746 12.912 15.746 28.814v0z" p-id="3187"></path><path d="M432.327 257.475v515.348c0 18.58-7.085 33.853-15.746 33.853h-4.409c-8.66 0-15.746-15.274-15.746-33.853v-515.348c0-18.58 7.085-33.853 15.746-33.853h4.409c8.66-0.158 15.746 15.115 15.746 33.853v0z" p-id="3188"></path><path d="M223.229 435.398v335.536c0 19.682-7.085 35.742-15.746 35.742h-4.409c-8.66 0-15.587-16.060-15.587-35.742v-335.536c0-19.682 7.085-35.742 15.587-35.742h4.409c8.66 0.158 15.746 16.218 15.746 35.742v0z" p-id="3189"></path><path d="M846.748 481.060v294.282c0 17.164-7.085 31.333-15.746 31.333h-4.409c-8.66 0-15.587-14.014-15.587-31.333v-294.282c0-17.164 7.085-31.333 15.587-31.333h4.409c8.66 0 15.746 14.014 15.746 31.333v0z" p-id="3190"></path></svg>